<svg width="45" height="46" viewBox="0 0 45 46" fill="none" xmlns="http://www.w3.org/2000/svg">
<path d="M29.61 27.076L0.889999 0.146016C0.549999 -0.173984 0 0.0660164 0 0.536016V17.186C0 17.336 0.0599998 17.466 0.16 17.566L28.8 44.906C29.14 45.226 29.7 44.986 29.7 44.526V27.286C29.7 27.206 29.67 27.126 29.61 27.076Z" fill="#D9D9D9"/>
<path d="M43.36 8.996L30.12 12.666C29.87 12.736 29.7 12.956 29.7 13.216V27.166L43.67 23.296C43.92 23.226 44.09 23.006 44.09 22.746V9.546C44.09 9.166 43.73 8.896 43.36 8.996Z" fill="#D9D9D9"/>
</svg>
